<?xml version="1.0" encoding="UTF-8" standalone="no"?><!DOCTYPE svg PUBLIC "-//W3C//DTD SVG 1.1//EN" "http://www.w3.org/Graphics/SVG/1.1/DTD/svg11.dtd"><svg width="100%" height="100%" viewBox="0 0 500 500" version="1.1" xmlns="http://www.w3.org/2000/svg" style="fill-rule:evenodd;clip-rule:evenodd;stroke-linecap:round;stroke-linejoin:round;stroke-miterlimit:1.5;"><path d="M194.043,286.888c0,0 8.285,8.018 8.256,18.575c-0.029,10.557 -12.384,20.639 -12.384,20.639c0,0 -1.187,-11.402 -2.064,-20.639c-0.876,-9.236 6.192,-18.575 6.192,-18.575Z" style="fill:none;stroke:#000;stroke-width:18.43px;"/><path d="M377.732,280.696c-0,0 7.534,-2.46 8.255,12.384c0.722,14.843 -10.319,24.767 -10.319,24.767c-0,-0 -4.002,-15.637 -4.128,-24.767c-0.13,-9.445 6.192,-12.384 6.192,-12.384Z" style="fill:none;stroke:#000;stroke-width:18.43px;"/><path d="M142.445,297.208c0,-0 35.22,-35.641 61.918,-16.512c26.698,19.13 30.959,47.47 30.959,47.47c-0,0 -26.747,33.314 -57.79,12.384c-31.043,-20.931 -35.087,-43.342 -35.087,-43.342Z" style="fill:none;stroke:#000;stroke-width:18.43px;"/><path d="M404.563,275.053c-0,0 14.679,30.171 -12.384,53.113c-27.063,22.943 -51.598,0 -51.598,0c0,0 9.863,-44.596 28.895,-53.113c19.032,-8.516 35.087,0 35.087,0Z" style="fill:none;stroke:#000;stroke-width:18.43px;"/><path d="M264.216,487.088c-65.276,-1.126 -40.45,-25.644 -101.132,-61.918c-60.681,-36.274 -70.506,-19.608 -101.131,-49.534c-30.626,-29.926 -31.292,-53.206 -30.959,-103.195c0.333,-49.99 22.052,-60.297 20.639,-72.237c-1.412,-11.941 -9.117,-50.661 -16.511,-72.237c-7.394,-21.577 -35.792,-89.393 -0,-113.516c35.792,-24.123 88.46,53.331 119.707,57.79c31.246,4.459 60.037,-1.231 92.876,2.064c32.839,3.295 53.417,28.087 90.812,20.639c37.395,-7.448 130.622,-80.558 146.538,-66.045c15.916,14.512 -35.81,77.351 -49.534,119.707c-13.724,42.356 -24.326,41.892 -18.575,61.917c5.751,20.026 26.476,25.694 30.959,66.045c4.482,40.352 -19.349,76.229 -47.47,107.324c-28.121,31.095 -23.846,51.828 -41.279,74.301c-17.432,22.473 -33.58,22.246 -51.597,16.511c-18.018,-5.734 -1.723,-12.309 -10.32,-24.767c-8.598,-12.457 -34.639,-4.158 -24.767,-22.703c9.871,-18.544 26.271,-2.677 39.214,-2.064c12.943,0.614 26.111,-15.538 33.023,-2.064c6.911,13.474 3.568,18.225 -8.256,28.895c-11.824,10.671 -22.039,35.952 -72.237,35.087Z" style="fill:none;stroke:#000;stroke-width:18.43px;"/></svg>