<?xml version="1.0" encoding="UTF-8" standalone="no"?><!DOCTYPE svg PUBLIC "-//W3C//DTD SVG 1.1//EN" "http://www.w3.org/Graphics/SVG/1.1/DTD/svg11.dtd"><svg width="100%" height="100%" viewBox="0 0 500 500" version="1.1" xmlns="http://www.w3.org/2000/svg" xmlns:xlink="http://www.w3.org/1999/xlink" xml:space="preserve" style="fill-rule:evenodd;clip-rule:evenodd;stroke-linecap:round;stroke-linejoin:round;stroke-miterlimit:1.5;"><path d="M230.175,285.885c-7.512,-17.525 0.073,-32.197 19.477,-40.771c19.404,-8.573 51.132,9.618 73.27,44.395c22.138,34.777 18.638,53.794 12.985,76.105c-5.653,22.311 -46.517,74.323 -131.702,73.387c-85.185,-0.936 -115.574,-47.053 -112.224,-84.259c3.35,-37.206 5.53,-112.905 53.793,-144.962c48.264,-32.058 59.577,-25.262 82.546,-41.677c22.968,-16.415 18.775,-37.113 36.171,-56.173c17.396,-19.06 24.888,-17.969 31.534,-24.462c3.665,-3.58 0.234,-5.468 8.348,-14.496c8.114,-9.029 15.767,-17.366 21.332,-13.591c5.565,3.775 5.836,32.3 12.057,36.241c6.221,3.941 21.459,7.487 25.969,19.932c4.51,12.445 13.373,32.994 12.985,41.677c-0.389,8.683 -6.174,19.402 -12.985,21.744c-6.81,2.342 -24.984,-0.414 -27.824,9.06c-2.84,9.475 8.951,25.602 6.492,44.395c-2.459,18.793 -33.663,51.895 -35.244,77.011c-1.581,25.117 2.1,93.776 39.882,103.286" style="fill:none;stroke:#000;stroke-width:2px;"/></svg>